HIERARCHY
ROOT newVegas:Hips
{
	OFFSET 0.000000 96.479958 0.000000
	CHANNELS 6 Xposition Yposition Zposition Xrotation Yrotation Zrotation
	JOINT newVegas:Pelvis
	{
		OFFSET 0.000000 0.000000 0.000000
		CHANNELS 3 Xrotation Yrotation Zrotation
		JOINT newVegas:LeftUpLeg
		{
			OFFSET 18.735201 -5.666702 -4.541200
			CHANNELS 3 Xrotation Yrotation Zrotation
			JOINT newVegas:LeftLeg
			{
				OFFSET -0.021200 -31.938179 0.493100
				CHANNELS 3 Xrotation Yrotation Zrotation
				JOINT newVegas:LeftFoot
				{
					OFFSET 0.021200 -31.938179 -4.336299
					CHANNELS 3 Xrotation Yrotation Zrotation
					JOINT newVegas:LeftToeBase
					{
						OFFSET 0.943001 -26.722000 15.023500
						CHANNELS 3 Xrotation Yrotation Zrotation
						End Site
						{
							OFFSET 0.000000 30.670183 0.000000
						}
					}
				}
				JOINT newVegas:Left_PantLeg
				{
					OFFSET 0.663870 -9.044666 -1.108900
					CHANNELS 3 Xrotation Yrotation Zrotation
					End Site
					{
						OFFSET 1.415995 20.635357 0.000000
					}
				}
			}
		}
		JOINT newVegas:RightUpLeg
		{
			OFFSET -18.735201 -5.666702 -4.541200
			CHANNELS 3 Xrotation Yrotation Zrotation
			JOINT newVegas:RightLeg
			{
				OFFSET 0.018946 -31.938133 0.493100
				CHANNELS 3 Xrotation Yrotation Zrotation
				JOINT newVegas:RightFoot
				{
					OFFSET -0.018946 -31.938126 -4.336299
					CHANNELS 3 Xrotation Yrotation Zrotation
					JOINT newVegas:RightToeBase
					{
						OFFSET -0.943001 -26.722004 15.023500
						CHANNELS 3 Xrotation Yrotation Zrotation
						End Site
						{
							OFFSET 0.000000 30.670187 0.000000
						}
					}
				}
				JOINT newVegas:Right_PantLeg
				{
					OFFSET -0.661674 -9.044716 -1.108900
					CHANNELS 3 Xrotation Yrotation Zrotation
					End Site
					{
						OFFSET -1.415958 20.635269 0.000000
					}
				}
			}
		}
	}
	JOINT newVegas:Spine
	{
		OFFSET 0.000000 10.199997 -0.299500
		CHANNELS 3 Xrotation Yrotation Zrotation
		JOINT newVegas:Spine1
		{
			OFFSET 0.000000 11.900002 -1.516600
			CHANNELS 3 Xrotation Yrotation Zrotation
			JOINT newVegas:Spine2
			{
				OFFSET 0.000000 13.600006 -2.842500
				CHANNELS 3 Xrotation Yrotation Zrotation
				JOINT newVegas:Neck
				{
					OFFSET 0.000000 9.624100 -2.890100
					CHANNELS 3 Xrotation Yrotation Zrotation
					JOINT newVegas:Head
					{
						OFFSET 0.000000 14.068802 -1.351900
						CHANNELS 3 Xrotation Yrotation Zrotation
						JOINT newVegas:Hair_Back
						{
							OFFSET 0.000000 3.231903 -17.524799
							CHANNELS 3 Xrotation Yrotation Zrotation
							End Site
							{
								OFFSET 0.000000 19.849884 0.000000
							}
						}
						JOINT newVegas:Hair_Front
						{
							OFFSET 0.000000 31.260406 4.573800
							CHANNELS 3 Xrotation Yrotation Zrotation
							JOINT newVegas:Hair_Front1
							{
								OFFSET 0.000000 2.284103 11.993300
								CHANNELS 3 Xrotation Yrotation Zrotation
								JOINT newVegas:Hair_Front2
								{
									OFFSET 0.000000 2.284103 11.993300
									CHANNELS 3 Xrotation Yrotation Zrotation
									End Site
									{
										OFFSET 0.000000 12.208862 0.000000
									}
								}
							}
						}
						JOINT newVegas:Jowel
						{
							OFFSET 0.000000 -7.458206 6.864100
							CHANNELS 3 Xrotation Yrotation Zrotation
							End Site
							{
								OFFSET 0.000000 19.849884 0.000000
							}
						}
					}
				}
				JOINT newVegas:LeftShoulder
				{
					OFFSET 15.263000 10.923401 -0.547700
					CHANNELS 3 Xrotation Yrotation Zrotation
					JOINT newVegas:LeftArm
					{
						OFFSET 25.438599 -2.830597 -13.032500
						CHANNELS 3 Xrotation Yrotation Zrotation
						JOINT newVegas:LeftForeArm
						{
							OFFSET 29.960503 0.000000 0.000000
							CHANNELS 3 Xrotation Yrotation Zrotation
							JOINT newVegas:LeftHand
							{
								OFFSET 27.849251 0.000000 0.000000
								CHANNELS 3 Xrotation Yrotation Zrotation
								JOINT newVegas:LeftHandThumb1
								{
									OFFSET 4.487587 -3.305161 6.305391
									CHANNELS 3 Xrotation Yrotation Zrotation
									JOINT newVegas:LeftHandThumb2
									{
										OFFSET 5.480453 -3.164139 3.164143
										CHANNELS 3 Xrotation Yrotation Zrotation
										JOINT newVegas:LeftHandThumb3
										{
											OFFSET 5.159721 -2.978973 2.978967
											CHANNELS 3 Xrotation Yrotation Zrotation
											End Site
											{
												OFFSET 2.494507 5.926697 1.738678
											}
										}
									}
								}
								JOINT newVegas:LeftHandIndex1
								{
									OFFSET 18.578728 -0.527832 5.208049
									CHANNELS 3 Xrotation Yrotation Zrotation
									JOINT newVegas:LeftHandIndex2
									{
										OFFSET 3.192009 0.000000 0.000000
										CHANNELS 3 Xrotation Yrotation Zrotation
										JOINT newVegas:LeftHandIndex3
										{
											OFFSET 3.835129 0.000000 0.000000
											CHANNELS 3 Xrotation Yrotation Zrotation
											End Site
											{
												OFFSET -0.034599 3.816971 0.371180
											}
										}
									}
								}
								JOINT newVegas:LeftHandMiddle1
								{
									OFFSET 18.476105 0.000000 0.000000
									CHANNELS 3 Xrotation Yrotation Zrotation
									JOINT newVegas:LeftHandMiddle2
									{
										OFFSET 3.324875 0.000000 0.000000
										CHANNELS 3 Xrotation Yrotation Zrotation
										JOINT newVegas:LeftHandMiddle3
										{
											OFFSET 4.596550 0.000000 0.000000
											CHANNELS 3 Xrotation Yrotation Zrotation
											End Site
											{
												OFFSET 0.057701 4.578827 0.399218
											}
										}
									}
								}
								JOINT newVegas:LeftHandRing1
								{
									OFFSET 17.732719 0.121887 -4.201567
									CHANNELS 3 Xrotation Yrotation Zrotation
									JOINT newVegas:LeftHandRing2
									{
										OFFSET 2.733170 0.000000 0.000000
										CHANNELS 3 Xrotation Yrotation Zrotation
										JOINT newVegas:LeftHandRing3
										{
											OFFSET 3.178268 0.000000 0.000000
											CHANNELS 3 Xrotation Yrotation Zrotation
											End Site
											{
												OFFSET 0.119102 3.170624 0.185394
											}
										}
									}
								}
								JOINT newVegas:LeftHandPinky1
								{
									OFFSET 15.989624 -0.606689 -7.535461
									CHANNELS 3 Xrotation Yrotation Zrotation
									JOINT newVegas:LeftHandPinky2
									{
										OFFSET 2.538986 0.000000 0.000000
										CHANNELS 3 Xrotation Yrotation Zrotation
										JOINT newVegas:LeftHandPinky3
										{
											OFFSET 2.593102 0.000000 0.000000
											CHANNELS 3 Xrotation Yrotation Zrotation
											End Site
											{
												OFFSET -0.150902 2.584198 0.152708
											}
										}
									}
								}
							}
							JOINT newVegas:Left_Sleeve
							{
								OFFSET 0.267448 -0.649796 0.577675
								CHANNELS 3 Xrotation Yrotation Zrotation
								End Site
								{
									OFFSET 0.000000 15.991241 0.000000
								}
							}
							JOINT newVegas:Left_CapeC
							{
								OFFSET 15.715958 -8.608795 -6.935905
								CHANNELS 3 Xrotation Yrotation Zrotation
								JOINT newVegas:Left_CapeC1
								{
									OFFSET 0.000000 -8.688499 0.000000
									CHANNELS 3 Xrotation Yrotation Zrotation
									End Site
									{
										OFFSET 0.000000 8.688499 0.000000
									}
								}
							}
						}
						JOINT newVegas:Left_CapeB
						{
							OFFSET 26.118385 -8.608795 -7.079235
							CHANNELS 3 Xrotation Yrotation Zrotation
							JOINT newVegas:Left_CapeB1
							{
								OFFSET 0.000000 -8.688499 0.000000
								CHANNELS 3 Xrotation Yrotation Zrotation
								End Site
								{
									OFFSET 0.000000 8.688499 0.000000
								}
							}
						}
						JOINT newVegas:Left_CapeA
						{
							OFFSET 5.115639 -8.608795 -10.395809
							CHANNELS 3 Xrotation Yrotation Zrotation
							JOINT newVegas:Left_CapeA1
							{
								OFFSET 0.000000 -8.688499 0.000000
								CHANNELS 3 Xrotation Yrotation Zrotation
								End Site
								{
									OFFSET 0.000000 8.688499 0.000000
								}
							}
						}
					}
				}
				JOINT newVegas:RightShoulder
				{
					OFFSET -15.263000 10.923401 -0.547700
					CHANNELS 3 Xrotation Yrotation Zrotation
					JOINT newVegas:RightArm
					{
						OFFSET -25.438599 -2.830597 -13.032500
						CHANNELS 3 Xrotation Yrotation Zrotation
						JOINT newVegas:RightForeArm
						{
							OFFSET -29.960503 0.000000 0.000000
							CHANNELS 3 Xrotation Yrotation Zrotation
							JOINT newVegas:RightHand
							{
								OFFSET -27.849251 0.000000 0.000000
								CHANNELS 3 Xrotation Yrotation Zrotation
								JOINT newVegas:RightHandThumb1
								{
									OFFSET -4.487587 -3.305161 6.305391
									CHANNELS 3 Xrotation Yrotation Zrotation
									JOINT newVegas:RightHandThumb2
									{
										OFFSET -5.480453 -3.164139 3.164143
										CHANNELS 3 Xrotation Yrotation Zrotation
										JOINT newVegas:RightHandThumb3
										{
											OFFSET -5.159721 -2.978973 2.978967
											CHANNELS 3 Xrotation Yrotation Zrotation
											End Site
											{
												OFFSET -2.494507 5.926697 1.738678
											}
										}
									}
								}
								JOINT newVegas:RightHandIndex1
								{
									OFFSET -18.578728 -0.527832 5.208049
									CHANNELS 3 Xrotation Yrotation Zrotation
									JOINT newVegas:RightHandIndex2
									{
										OFFSET -3.192009 0.000000 0.000000
										CHANNELS 3 Xrotation Yrotation Zrotation
										JOINT newVegas:RightHandIndex3
										{
											OFFSET -3.835129 0.000000 0.000000
											CHANNELS 3 Xrotation Yrotation Zrotation
											End Site
											{
												OFFSET 0.034599 3.816971 0.371180
											}
										}
									}
								}
								JOINT newVegas:RightHandMiddle1
								{
									OFFSET -18.476105 0.000000 0.000000
									CHANNELS 3 Xrotation Yrotation Zrotation
									JOINT newVegas:RightHandMiddle2
									{
										OFFSET -3.324875 0.000000 0.000000
										CHANNELS 3 Xrotation Yrotation Zrotation
										JOINT newVegas:RightHandMiddle3
										{
											OFFSET -4.596550 0.000000 0.000000
											CHANNELS 3 Xrotation Yrotation Zrotation
											End Site
											{
												OFFSET -0.057701 4.578827 0.399218
											}
										}
									}
								}
								JOINT newVegas:RightHandRing1
								{
									OFFSET -17.732719 0.121887 -4.201567
									CHANNELS 3 Xrotation Yrotation Zrotation
									JOINT newVegas:RightHandRing2
									{
										OFFSET -2.733170 0.000000 0.000000
										CHANNELS 3 Xrotation Yrotation Zrotation
										JOINT newVegas:RightHandRing3
										{
											OFFSET -3.178268 0.000000 0.000000
											CHANNELS 3 Xrotation Yrotation Zrotation
											End Site
											{
												OFFSET -0.119102 3.170624 0.185394
											}
										}
									}
								}
								JOINT newVegas:RightHandPinky1
								{
									OFFSET -15.989624 -0.606689 -7.535461
									CHANNELS 3 Xrotation Yrotation Zrotation
									JOINT newVegas:RightHandPinky2
									{
										OFFSET -2.538986 0.000000 0.000000
										CHANNELS 3 Xrotation Yrotation Zrotation
										JOINT newVegas:RightHandPinky3
										{
											OFFSET -2.593102 0.000000 0.000000
											CHANNELS 3 Xrotation Yrotation Zrotation
											End Site
											{
												OFFSET 0.150902 2.584198 0.152708
											}
										}
									}
								}
							}
							JOINT newVegas:Right_CapeC
							{
								OFFSET -15.715958 -8.608795 -6.935905
								CHANNELS 3 Xrotation Yrotation Zrotation
								JOINT newVegas:Right_CapeC1
								{
									OFFSET 0.000000 -8.688499 0.000000
									CHANNELS 3 Xrotation Yrotation Zrotation
									End Site
									{
										OFFSET 0.000000 8.688499 0.000000
									}
								}
							}
							JOINT newVegas:Right_Sleeve
							{
								OFFSET -0.267448 -0.649994 0.577675
								CHANNELS 3 Xrotation Yrotation Zrotation
								End Site
								{
									OFFSET 0.000000 15.991302 0.000000
								}
							}
						}
						JOINT newVegas:Right_CapeA
						{
							OFFSET -5.115540 -8.608795 -10.395824
							CHANNELS 3 Xrotation Yrotation Zrotation
							JOINT newVegas:Right_CapeA1
							{
								OFFSET 0.000000 -8.688499 0.000000
								CHANNELS 3 Xrotation Yrotation Zrotation
								End Site
								{
									OFFSET 0.000000 8.688499 0.000000
								}
							}
						}
						JOINT newVegas:Right_CapeB
						{
							OFFSET -26.118187 -8.608795 -7.079266
							CHANNELS 3 Xrotation Yrotation Zrotation
							JOINT newVegas:Right_CapeB1
							{
								OFFSET 0.000000 -8.688499 0.000000
								CHANNELS 3 Xrotation Yrotation Zrotation
								End Site
								{
									OFFSET 0.000000 8.688499 0.000000
								}
							}
						}
					}
				}
				JOINT newVegas:Left_Collar
				{
					OFFSET 18.625099 8.655502 8.828100
					CHANNELS 3 Xrotation Yrotation Zrotation
					JOINT newVegas:Left_Collar1
					{
						OFFSET 14.783401 10.540405 -1.259500
						CHANNELS 3 Xrotation Yrotation Zrotation
						End Site
						{
							OFFSET 0.000000 18.199875 0.000000
						}
					}
				}
				JOINT newVegas:Collar_Back
				{
					OFFSET 0.000000 15.630707 -20.132601
					CHANNELS 3 Xrotation Yrotation Zrotation
					End Site
					{
						OFFSET 0.000000 22.523010 0.000000
					}
				}
				JOINT newVegas:Left_Peck
				{
					OFFSET 17.239599 -5.132599 25.482599
					CHANNELS 3 Xrotation Yrotation Zrotation
					End Site
					{
						OFFSET 0.000000 22.523010 0.000000
					}
				}
				JOINT newVegas:Right_Peck
				{
					OFFSET -17.239599 -5.132202 25.482599
					CHANNELS 3 Xrotation Yrotation Zrotation
					End Site
					{
						OFFSET 0.000000 22.523010 0.000000
					}
				}
				JOINT newVegas:Right_Collar
				{
					OFFSET -18.625099 8.655792 8.828100
					CHANNELS 3 Xrotation Yrotation Zrotation
					JOINT newVegas:Right_Collar1
					{
						OFFSET -14.783401 10.539993 -1.259500
						CHANNELS 3 Xrotation Yrotation Zrotation
						End Site
						{
							OFFSET 0.000000 18.199631 0.000000
						}
					}
				}
			}
		}
		JOINT newVegas:Belly
		{
			OFFSET 0.000000 -6.540398 9.014299
			CHANNELS 3 Xrotation Yrotation Zrotation
			End Site
			{
				OFFSET 0.000000 11.566666 0.000000
			}
		}
	}
	JOINT newVegas:ElvisFacialAnim_Joint
	{
		OFFSET 1.000000 -95.330101 -8.825800
		CHANNELS 3 Xrotation Yrotation Zrotation
		End Site
		{
			OFFSET 0.000000 35.315800 0.000000
		}
	}
}
MOTION
Frames: 4
Frame Time: 0.016667
-1.701182 93.711105 2.385727 2.912643 -28.993303 1.190035 -0.000000 0.000000 0.000000 -19.101881 17.307508 13.859742 23.892707 12.122892 -1.504178 -6.535999 -3.224565 -8.274172 -0.000000 0.000000 0.000000 -0.000000 0.000000 0.000000 -12.318254 -0.375496 -11.129998 16.866898 9.899558 0.864967 -8.231864 -1.387175 8.929600 0.000000 0.000001 -0.000000 0.000000 -0.000002 -0.000000 7.835976 -0.359998 -2.682278 1.099248 -0.880573 2.383465 1.108680 -0.590430 2.446366 -0.922893 3.567101 -1.380649 -0.922897 3.567105 -1.380650 0.000001 -0.000003 0.000000 -0.922818 3.567100 -1.380655 -0.922893 3.567086 -1.380645 -0.000001 -0.000001 -0.000000 0.000001 -0.000003 0.000000 -0.057079 -8.759453 -0.061262 -55.250763 0.329469 -41.449385 11.584430 -65.827328 13.005558 -50.189118 12.353136 4.610179 17.551612 -5.699230 -12.932292 10.850483 26.127775 8.644843 -0.000001 -0.000000 -0.000005 13.980901 1.201518 -55.004357 0.370803 1.161730 -65.441893 -0.000001 -0.000002 0.000000 7.504729 1.174439 -63.778490 1.807800 1.475681 -64.567978 0.000000 -0.000001 0.000000 8.574333 2.179079 -75.148992 -0.207636 1.009267 -57.855056 0.000001 0.000001 -0.000000 10.030102 13.637079 -84.750237 0.877101 0.062254 -64.595490 -0.000000 -0.000002 0.000001 0.000000 -0.000001 0.000000 0.000000 -0.000001 0.000000 -0.000000 -0.000001 0.000000 0.000000 -0.000003 -0.000000 0.000000 -0.000003 -0.000002 0.000000 -0.000003 -0.000000 -0.000001 -0.000003 -0.000001 4.849284 7.760151 5.560463 -0.933501 -2.176882 61.845628 11.299301 18.943453 -3.987587 -0.459232 6.620147 5.830127 15.788534 -2.734474 -17.205899 -2.198323 -31.113564 7.361293 0.000000 -0.000003 -0.000003 2.372298 -3.659075 8.487466 -2.147367 -2.473143 18.673303 0.000000 0.000000 -0.000000 -1.976249 -5.707886 13.662361 0.283054 -5.105400 26.988092 0.000001 0.000000 -0.000000 -3.263073 -8.563306 11.768985 4.036066 -4.063306 33.263158 -0.000000 0.000001 0.000002 -6.474143 -11.347967 23.260704 10.719407 -2.558782 34.822931 -0.000000 0.000003 -0.000000 -0.000000 -0.000000 -0.000001 -0.000000 -0.000000 -0.000001 -0.000000 -0.000000 -0.000001 0.000002 -0.000002 -0.000001 0.000002 -0.000002 -0.000000 0.000002 -0.000002 -0.000001 0.000002 -0.000002 -0.000000 -0.000000 0.000002 -0.000001 -0.000000 0.000002 -0.000001 -0.000000 0.000002 -0.000001 -0.000000 0.000002 -0.000001 -0.000000 0.000002 -0.000001 -0.000000 0.000002 -0.000001 -0.000000 0.000002 -0.000001 -0.000000 -0.000001 0.000000 -0.000000 0.000000 0.000000 
-1.649117 93.696030 2.350708 2.891445 -29.082792 1.195400 -0.000000 -0.000001 0.000000 -19.139711 17.309695 13.835887 24.010205 12.142070 -1.511875 -6.587400 -3.165274 -8.248334 0.000000 0.000000 -0.000000 -0.000000 -0.000000 0.000000 -12.461056 -0.329015 -11.176949 17.010393 9.893816 0.863276 -8.221368 -1.299902 8.971102 -0.000000 -0.000001 0.000000 0.000001 0.000002 -0.000001 7.936428 -0.338678 -2.626417 1.080460 -0.850004 2.358320 1.088648 -0.565127 2.416397 -0.927341 3.563791 -1.395820 -0.927351 3.563801 -1.395823 -0.000001 0.000001 -0.000000 -0.927344 3.563808 -1.395821 -0.927270 3.563795 -1.395825 0.000001 0.000001 -0.000000 -0.000001 0.000001 -0.000000 -0.057068 -8.759452 -0.061263 -55.271428 0.413106 -41.445219 11.503858 -65.871130 12.918191 -50.190337 12.364716 4.610389 17.551612 -5.699233 -12.932288 10.850489 26.127772 8.644841 0.000000 -0.000002 -0.000005 13.980900 1.201516 -55.004357 0.370802 1.161730 -65.441893 -0.000001 -0.000002 0.000001 7.504726 1.174437 -63.778490 1.807803 1.475679 -64.567978 -0.000002 -0.000001 -0.000003 8.574333 2.179078 -75.148992 -0.207633 1.009268 -57.855056 -0.000000 -0.000000 -0.000002 10.030101 13.637078 -84.750230 0.877101 0.062252 -64.595490 -0.000001 -0.000002 -0.000002 0.000001 0.000001 0.000001 0.000001 0.000001 0.000001 -0.000000 0.000001 0.000001 0.000001 0.000001 -0.000001 0.000000 -0.000000 -0.000003 0.000001 0.000001 -0.000001 -0.000001 0.000000 -0.000002 4.865852 7.713956 5.066079 -1.727482 -3.842177 62.180799 11.300533 19.067262 -3.968930 -0.401670 6.552086 5.647304 15.848966 -2.695778 -17.150600 -2.384715 -31.097506 7.210795 0.000001 0.000000 0.000003 2.412222 -3.560312 9.283005 -2.102628 -2.491899 20.475838 -0.000000 0.000001 -0.000000 -1.994701 -5.660129 14.224516 0.416708 -5.085382 28.451573 -0.000001 0.000001 -0.000002 -3.395382 -8.569162 12.124394 4.157473 -3.928403 34.228434 -0.000002 -0.000001 0.000001 -6.836876 -11.346099 23.402378 10.672927 -2.539573 35.822355 0.000001 0.000003 -0.000001 -0.000000 -0.000000 0.000001 0.000000 -0.000001 0.000001 -0.000000 -0.000001 0.000001 -0.000000 0.000001 0.000002 -0.000000 0.000000 -0.000000 -0.000000 0.000001 0.000002 -0.000000 0.000000 0.000002 -0.000000 -0.000001 -0.000000 -0.000000 -0.000001 -0.000000 -0.000000 -0.000001 -0.000000 -0.000000 -0.000001 -0.000000 -0.000000 -0.000001 -0.000000 -0.000000 -0.000001 -0.000000 -0.000000 -0.000001 -0.000000 -0.000000 -0.000001 0.000000 -0.000000 -0.000001 0.000000 
-1.589584 93.670013 2.309865 2.891752 -29.199926 1.227193 0.000000 -0.000001 -0.000000 -19.204749 17.314979 13.793558 24.159738 12.088753 -1.525053 -6.656170 -3.005274 -8.204785 -0.000000 0.000000 -0.000000 -0.000001 -0.000000 0.000000 -12.698830 -0.241928 -11.247372 17.268504 9.731342 0.848087 -8.242585 -1.049504 9.054823 0.000000 0.000001 0.000000 -0.000001 -0.000001 -0.000000 8.054642 -0.317313 -2.570821 1.045025 -0.814359 2.320277 1.051746 -0.537262 2.372766 -0.930190 3.562931 -1.412066 -0.930191 3.562934 -1.412066 -0.000000 0.000001 0.000000 -0.930118 3.562935 -1.412072 -0.930190 3.562921 -1.412064 -0.000000 -0.000000 -0.000000 -0.000000 0.000001 0.000000 -0.056869 -8.756179 -0.061015 -55.279098 0.492953 -41.432194 11.415523 -65.915806 12.820350 -50.192536 12.364370 4.627897 17.551616 -5.699227 -12.932281 10.850485 26.127774 8.644849 0.000002 0.000002 -0.000001 13.980900 1.201520 -55.004357 0.370803 1.161730 -65.441893 -0.000002 0.000002 0.000002 7.504728 1.174438 -63.778490 1.807801 1.475680 -64.567978 0.000002 0.000001 0.000004 8.574333 2.179082 -75.148992 -0.207632 1.009264 -57.855056 0.000000 -0.000001 0.000001 10.030103 13.637076 -84.750237 0.877101 0.062254 -64.595496 -0.000000 -0.000003 0.000001 -0.000001 0.000001 -0.000000 -0.000001 0.000001 -0.000000 -0.000002 0.000001 0.000000 0.000000 0.000002 0.000002 0.000000 0.000001 0.000001 0.000000 0.000002 0.000002 -0.000001 0.000001 0.000002 4.899520 7.770207 4.883302 -2.486735 -5.619533 62.291769 11.240946 19.305412 -3.821078 -0.295082 6.502931 5.287237 15.913514 -2.655481 -17.091824 -2.582664 -31.081278 7.049755 0.000002 -0.000001 0.000001 2.451971 -3.455407 10.124579 -2.056494 -2.510904 22.383097 -0.000001 -0.000000 0.000003 -2.015455 -5.610607 14.819364 0.556760 -5.060594 29.999871 -0.000001 0.000001 -0.000003 -3.535397 -8.575339 12.500586 4.281585 -3.782336 35.249206 0.000000 0.000001 0.000002 -7.220723 -11.346671 23.553277 10.626880 -2.521936 36.881840 0.000001 0.000003 0.000005 -0.000000 -0.000000 0.000000 -0.000000 0.000001 -0.000001 -0.000000 -0.000000 0.000002 -0.000002 0.000002 -0.000002 -0.000002 0.000002 -0.000001 -0.000002 0.000002 -0.000002 -0.000002 0.000002 -0.000001 -0.000000 0.000000 -0.000000 -0.000000 0.000000 -0.000000 -0.000000 0.000000 -0.000000 -0.000000 0.000000 -0.000000 -0.000000 0.000000 -0.000000 -0.000000 0.000000 -0.000000 -0.000000 0.000000 -0.000000 -0.000001 -0.000001 0.000000 0.000000 -0.000001 -0.000000 
-1.516326 93.628456 2.261782 2.912270 -29.364435 1.293500 -0.000000 -0.000001 0.000000 -19.296401 17.329477 13.717697 24.359549 12.010398 -1.527795 -6.756170 -2.767567 -8.158780 -0.000000 0.000000 -0.000000 0.000000 0.000000 -0.000000 -13.064212 -0.110173 -11.355690 17.681678 9.460597 0.823038 -8.307853 -0.657877 9.176000 0.000000 -0.000001 -0.000000 -0.000000 0.000003 0.000000 8.215042 -0.291695 -2.503174 0.982371 -0.769356 2.257492 0.987261 -0.504674 2.302934 -0.932901 3.566206 -1.433140 -0.932895 3.566203 -1.433143 0.000000 -0.000000 -0.000000 -0.932902 3.566210 -1.433142 -0.932907 3.566198 -1.433141 0.000000 0.000001 0.000000 0.000000 -0.000000 -0.000000 -0.053853 -8.693471 -0.060967 -55.250404 0.554231 -41.417488 11.247238 -65.966288 12.636394 -50.201494 12.368747 4.700062 17.551614 -5.699229 -12.932290 10.850485 26.127777 8.644843 -0.000001 -0.000002 -0.000005 13.980900 1.201517 -55.004357 0.370806 1.161730 -65.441893 0.000001 -0.000000 -0.000003 7.504728 1.174438 -63.778490 1.807803 1.475680 -64.567971 -0.000001 0.000001 0.000001 8.574331 2.179079 -75.148986 -0.207635 1.009267 -57.855056 0.000001 0.000001 -0.000001 10.030101 13.637076 -84.750237 0.877101 0.062251 -64.595490 -0.000000 0.000000 -0.000001 0.000002 0.000002 0.000001 0.000002 0.000002 0.000001 0.000001 0.000002 0.000001 0.000001 0.000000 0.000001 0.000000 -0.000001 0.000001 0.000001 0.000000 0.000001 -0.000001 -0.000001 0.000000 4.923733 7.918117 4.671085 -3.132925 -7.632033 62.463815 11.059122 19.707840 -3.492751 -0.105814 6.503908 4.622637 15.981668 -2.613716 -17.029883 -2.790816 -31.064674 6.879358 0.000001 -0.000003 -0.000003 2.490955 -3.344929 11.007170 -2.009445 -2.530176 24.383599 0.000001 0.000001 -0.000000 -2.038532 -5.559738 15.443213 0.702053 -5.030688 31.623786 0.000001 -0.000001 0.000002 -3.682326 -8.586001 12.895188 4.407020 -3.625675 36.319125 -0.000001 0.000001 -0.000001 -7.623292 -11.350016 23.712689 10.582180 -2.506275 37.994997 0.000001 0.000003 -0.000003 0.000001 -0.000000 -0.000000 0.000001 -0.000000 -0.000000 0.000001 -0.000000 0.000001 -0.000002 0.000000 -0.000002 -0.000001 0.000001 -0.000002 -0.000002 0.000000 -0.000002 -0.000001 0.000001 -0.000002 0.000000 -0.000001 0.000000 0.000000 -0.000001 0.000000 0.000000 -0.000001 0.000000 0.000000 -0.000001 0.000000 0.000000 -0.000001 0.000000 0.000000 -0.000001 0.000000 0.000000 -0.000001 0.000000 0.000001 0.000001 -0.000000 -0.000000 -0.000001 0.000000 
